<svg width="73" height="72" viewBox="0 0 73 72" fill="none" xmlns="http://www.w3.org/2000/svg">
<path d="M33.4585 21H39.5418V27H33.4585V21ZM33.4585 33H39.5418V51H33.4585V33ZM36.5002 6C19.7102 6 6.0835 19.44 6.0835 36C6.0835 52.56 19.7102 66 36.5002 66C53.2902 66 66.9168 52.56 66.9168 36C66.9168 19.44 53.2902 6 36.5002 6ZM36.5002 60C23.0864 60 12.1668 49.23 12.1668 36C12.1668 22.77 23.0864 12 36.5002 12C49.9139 12 60.8335 22.77 60.8335 36C60.8335 49.23 49.9139 60 36.5002 60Z" fill="#E9DAD3"/>
</svg>
