<svg width="84" height="67" viewBox="0 0 84 67" fill="none" xmlns="http://www.w3.org/2000/svg">
<g filter="url(#filter0_d_155_165)">
<path d="M52.5 2.66675H31.5V8.00008H52.5V2.66675ZM38.5 37.3334H45.5V21.3334H38.5V37.3334ZM66.605 19.7067L71.575 15.9201C70.07 14.5601 68.425 13.2801 66.64 12.1601L61.67 15.9467C56.245 12.6401 49.42 10.6667 42 10.6667C24.605 10.6667 10.5 21.4134 10.5 34.6668C10.5 47.9201 24.57 58.6668 42 58.6668C59.43 58.6668 73.5 47.9201 73.5 34.6668C73.5 29.0134 70.91 23.8134 66.605 19.7067ZM42 53.3334C28.455 53.3334 17.5 44.9868 17.5 34.6668C17.5 24.3468 28.455 16.0001 42 16.0001C55.545 16.0001 66.5 24.3468 66.5 34.6668C66.5 44.9868 55.545 53.3334 42 53.3334Z" fill="#E9DAD3"/>
</g>
<defs>
<filter id="filter0_d_155_165" x="-4" y="0" width="92" height="72" filterUnits="userSpaceOnUse" color-interpolation-filters="sRGB">
<feFlood flood-opacity="0" result="BackgroundImageFix"/>
<feColorMatrix in="SourceAlpha" type="matrix" values="0 0 0 0 0 0 0 0 0 0 0 0 0 0 0 0 0 0 127 0" result="hardAlpha"/>
<feOffset dy="4"/>
<feGaussianBlur stdDeviation="2"/>
<feComposite in2="hardAlpha" operator="out"/>
<feColorMatrix type="matrix" values="0 0 0 0 0 0 0 0 0 0 0 0 0 0 0 0 0 0 0.25 0"/>
<feBlend mode="normal" in2="BackgroundImageFix" result="effect1_dropShadow_155_165"/>
<feBlend mode="normal" in="SourceGraphic" in2="effect1_dropShadow_155_165" result="shape"/>
</filter>
</defs>
</svg>
