<svg width="80" height="64" viewBox="0 0 80 64" fill="none" xmlns="http://www.w3.org/2000/svg">
<path d="M35.1334 38.7467L28.0334 33.0667L24.5 35.8933L35.1 44.3733L55.1 28.3733L51.5667 25.5467L35.1334 38.7467ZM57.79 4.82666L73.1467 15.08L68.88 19.1733L53.5134 8.92533L57.79 4.82666ZM22.21 4.82666L26.4834 8.92266L11.1234 19.1733L6.85669 15.0773L22.21 4.82666ZM40 10.6667C23.4334 10.6667 10 21.4133 10 34.6667C10 47.92 23.4334 58.6667 40 58.6667C56.5667 58.6667 70 47.92 70 34.6667C70 21.4133 56.5667 10.6667 40 10.6667ZM40 53.3333C27.1334 53.3333 16.6667 44.96 16.6667 34.6667C16.6667 24.3733 27.1334 16 40 16C52.8667 16 63.3334 24.3733 63.3334 34.6667C63.3334 44.96 52.8667 53.3333 40 53.3333Z" fill="#E9DAD3"/>
</svg>
