<svg width="681" height="742" viewBox="0 0 681 742" fill="none" xmlns="http://www.w3.org/2000/svg">
<path d="M397.25 0H595.875C642.871 0 681 31.1437 681 69.5625V371H0V69.5625C0 31.1437 38.1112 0 85.125 0H113.5L170.25 92.75L227 0H283.75L340.5 92.75L397.25 0ZM681 417.375V463.75C681 514.907 630.102 556.5 567.5 556.5H454V649.25C454 700.407 403.102 742 340.5 742C277.898 742 227 700.407 227 649.25V556.5H113.5C50.809 556.5 0 514.907 0 463.75V417.375H681ZM340.5 672.438C356.106 672.438 368.875 662.003 368.875 649.25C368.875 636.497 356.106 626.062 340.5 626.062C324.894 626.062 312.125 636.497 312.125 649.25C312.125 662.003 324.894 672.438 340.5 672.438Z" fill="#29354A"/>
</svg>
